<mxfile host="app.diagrams.net" agent="Mozilla/5.0 (Windows NT 10.0; Win64; x64) AppleWebKit/537.36 (KHTML, like Gecko) Chrome/136.0.0.0 Safari/537.36" version="27.0.6">
  <diagram name="Σελίδα-1" id="x2MdTvrWdQ_0haqkCLX5">
    <mxGraphModel dx="783" dy="-959" grid="1" gridSize="10" guides="1" tooltips="1" connect="1" arrows="1" fold="1" page="0" pageScale="1" pageWidth="827" pageHeight="1169" background="light-dark(#FFFFFF,#000000)" math="0" shadow="0">
      <root>
        <mxCell id="0" />
        <mxCell id="1" parent="0" />
        <mxCell id="PfETOjP0mrE0vAom9uJC-3" value="Tnt_PaymentComp_Scr" style="shape=umlLifeline;perimeter=lifelinePerimeter;whiteSpace=wrap;html=1;container=1;dropTarget=0;collapsible=0;recursiveResize=0;outlineConnect=0;portConstraint=eastwest;newEdgeStyle={&quot;curved&quot;:0,&quot;rounded&quot;:0};" parent="1" vertex="1">
          <mxGeometry x="1960" y="1700" width="130" height="820" as="geometry" />
        </mxCell>
        <mxCell id="PfETOjP0mrE0vAom9uJC-4" value="" style="html=1;points=[[0,0,0,0,5],[0,0.25,0,0,0],[0,0.33,0,0,0],[0,0.5,0,0,0],[0,0.67,0,0,0],[0,0.84,0,0,0],[0,1,0,0,-5],[1,0,0,0,5],[1,0.25,0,0,0],[1,0.33,0,0,0],[1,0.5,0,0,0],[1,0.67,0,0,0],[1,0.75,0,0,0],[1,1,0,0,-5]];perimeter=orthogonalPerimeter;outlineConnect=0;targetShapes=umlLifeline;portConstraint=eastwest;newEdgeStyle={&quot;curved&quot;:0,&quot;rounded&quot;:0};" parent="PfETOjP0mrE0vAom9uJC-3" vertex="1">
          <mxGeometry x="60" y="330" width="10" height="460" as="geometry" />
        </mxCell>
        <mxCell id="PfETOjP0mrE0vAom9uJC-5" value="Mngr_Notif_Scr" style="shape=umlLifeline;perimeter=lifelinePerimeter;whiteSpace=wrap;html=1;container=1;dropTarget=0;collapsible=0;recursiveResize=0;outlineConnect=0;portConstraint=eastwest;newEdgeStyle={&quot;curved&quot;:0,&quot;rounded&quot;:0};" parent="1" vertex="1">
          <mxGeometry x="2290" y="1700" width="100" height="820" as="geometry" />
        </mxCell>
        <mxCell id="PfETOjP0mrE0vAom9uJC-6" value="" style="html=1;points=[[0,0,0,0,5],[0,1,0,0,-5],[1,0,0,0,5],[1,1,0,0,-5]];perimeter=orthogonalPerimeter;outlineConnect=0;targetShapes=umlLifeline;portConstraint=eastwest;newEdgeStyle={&quot;curved&quot;:0,&quot;rounded&quot;:0};" parent="PfETOjP0mrE0vAom9uJC-5" vertex="1">
          <mxGeometry x="45" y="700" width="10" height="20" as="geometry" />
        </mxCell>
        <mxCell id="PfETOjP0mrE0vAom9uJC-9" value="" style="shape=umlLifeline;perimeter=lifelinePerimeter;whiteSpace=wrap;html=1;container=1;dropTarget=0;collapsible=0;recursiveResize=0;outlineConnect=0;portConstraint=eastwest;newEdgeStyle={&quot;curved&quot;:0,&quot;rounded&quot;:0};participant=umlActor;points=[[1,0.09,0,0,0],[1,0.17,0,0,0],[1,0.18,0,0,0],[1,0.27,0,0,0],[1,0.33,0,0,0],[1,0.36,0,0,0],[1,0.45,0,0,0],[1,0.5,0,0,0],[1,0.55,0,0,0],[1,0.64,0,0,0],[1,0.67,0,0,0],[1,0.73,0,0,0],[1,0.82,0,0,0],[1,0.83,0,0,0],[1,0.91,0,0,0]];" parent="1" vertex="1">
          <mxGeometry x="1010" y="1750" width="20" height="770" as="geometry" />
        </mxCell>
        <mxCell id="PfETOjP0mrE0vAom9uJC-10" value="" style="shape=umlLifeline;perimeter=lifelinePerimeter;whiteSpace=wrap;html=1;container=1;dropTarget=0;collapsible=0;recursiveResize=0;outlineConnect=0;portConstraint=eastwest;newEdgeStyle={&quot;curved&quot;:0,&quot;rounded&quot;:0};participant=umlActor;" parent="1" vertex="1">
          <mxGeometry x="930" y="1750" width="20" height="770" as="geometry" />
        </mxCell>
        <mxCell id="PfETOjP0mrE0vAom9uJC-11" value="Tenant" style="text;html=1;align=center;verticalAlign=middle;resizable=0;points=[];autosize=1;strokeColor=none;fillColor=none;" parent="1" vertex="1">
          <mxGeometry x="990" y="1720" width="60" height="30" as="geometry" />
        </mxCell>
        <mxCell id="PfETOjP0mrE0vAom9uJC-12" value="" style="endArrow=classic;html=1;rounded=0;" parent="1" edge="1">
          <mxGeometry width="50" height="50" relative="1" as="geometry">
            <mxPoint x="1019.8939393939393" y="1850" as="sourcePoint" />
            <mxPoint x="1310" y="1850" as="targetPoint" />
          </mxGeometry>
        </mxCell>
        <mxCell id="PfETOjP0mrE0vAom9uJC-13" value="FinanceButton()" style="text;html=1;align=center;verticalAlign=middle;resizable=0;points=[];autosize=1;strokeColor=none;fillColor=none;" parent="1" vertex="1">
          <mxGeometry x="1045" y="1830" width="110" height="30" as="geometry" />
        </mxCell>
        <mxCell id="PfETOjP0mrE0vAom9uJC-20" value="" style="endArrow=classic;html=1;rounded=0;entryX=-0.2;entryY=0.614;entryDx=0;entryDy=0;entryPerimeter=0;" parent="1" source="PfETOjP0mrE0vAom9uJC-9" target="PfETOjP0mrE0vAom9uJC-52" edge="1">
          <mxGeometry width="50" height="50" relative="1" as="geometry">
            <mxPoint x="1030.0033333333333" y="1990" as="sourcePoint" />
            <mxPoint x="1610" y="1990" as="targetPoint" />
          </mxGeometry>
        </mxCell>
        <mxCell id="PfETOjP0mrE0vAom9uJC-21" value="SelectPayment()" style="text;html=1;align=center;verticalAlign=middle;resizable=0;points=[];autosize=1;strokeColor=none;fillColor=none;" parent="1" vertex="1">
          <mxGeometry x="1045" y="1970" width="110" height="30" as="geometry" />
        </mxCell>
        <mxCell id="PfETOjP0mrE0vAom9uJC-24" value="" style="endArrow=classic;html=1;rounded=0;" parent="1" target="PfETOjP0mrE0vAom9uJC-4" edge="1">
          <mxGeometry width="50" height="50" relative="1" as="geometry">
            <mxPoint x="1019.6666666666665" y="2130" as="sourcePoint" />
            <mxPoint x="1860" y="2130" as="targetPoint" />
            <Array as="points">
              <mxPoint x="1695.83" y="2130" />
            </Array>
          </mxGeometry>
        </mxCell>
        <mxCell id="PfETOjP0mrE0vAom9uJC-25" value="Fill Form, Click Submit&amp;nbsp;" style="text;html=1;align=center;verticalAlign=middle;resizable=0;points=[];autosize=1;strokeColor=none;fillColor=none;" parent="1" vertex="1">
          <mxGeometry x="1310" y="2100" width="150" height="30" as="geometry" />
        </mxCell>
        <mxCell id="PfETOjP0mrE0vAom9uJC-28" value="alt" style="shape=umlFrame;whiteSpace=wrap;html=1;pointerEvents=0;width=80;height=30;" parent="1" vertex="1">
          <mxGeometry x="1005" y="2190" width="1620" height="340" as="geometry" />
        </mxCell>
        <mxCell id="PfETOjP0mrE0vAom9uJC-29" value="" style="endArrow=none;dashed=1;html=1;rounded=0;exitX=0.45;exitY=0.892;exitDx=0;exitDy=0;exitPerimeter=0;" parent="1" edge="1">
          <mxGeometry width="50" height="50" relative="1" as="geometry">
            <mxPoint x="1025" y="2434.83" as="sourcePoint" />
            <mxPoint x="2518.56" y="2434.75" as="targetPoint" />
            <Array as="points">
              <mxPoint x="1651" y="2434.75" />
            </Array>
          </mxGeometry>
        </mxCell>
        <mxCell id="PfETOjP0mrE0vAom9uJC-35" value="CheckForm()" style="text;html=1;align=center;verticalAlign=middle;resizable=0;points=[];autosize=1;strokeColor=none;fillColor=none;" parent="1" vertex="1">
          <mxGeometry x="1890" y="2150" width="90" height="30" as="geometry" />
        </mxCell>
        <mxCell id="PfETOjP0mrE0vAom9uJC-36" value="Notification" style="shape=umlLifeline;perimeter=lifelinePerimeter;whiteSpace=wrap;html=1;container=1;dropTarget=0;collapsible=0;recursiveResize=0;outlineConnect=0;portConstraint=eastwest;newEdgeStyle={&quot;curved&quot;:0,&quot;rounded&quot;:0};" parent="1" vertex="1">
          <mxGeometry x="2460" y="1700" width="100" height="820" as="geometry" />
        </mxCell>
        <mxCell id="PfETOjP0mrE0vAom9uJC-44" value="Confirmation Message" style="text;html=1;align=center;verticalAlign=middle;resizable=0;points=[];autosize=1;strokeColor=none;fillColor=none;" parent="1" vertex="1">
          <mxGeometry x="1840" y="2220" width="140" height="30" as="geometry" />
        </mxCell>
        <mxCell id="PfETOjP0mrE0vAom9uJC-49" value="Debts" style="shape=umlLifeline;perimeter=lifelinePerimeter;whiteSpace=wrap;html=1;container=1;dropTarget=0;collapsible=0;recursiveResize=0;outlineConnect=0;portConstraint=eastwest;newEdgeStyle={&quot;curved&quot;:0,&quot;rounded&quot;:0};" parent="1" vertex="1">
          <mxGeometry x="1765" y="1700" width="100" height="820" as="geometry" />
        </mxCell>
        <mxCell id="PfETOjP0mrE0vAom9uJC-50" value="" style="html=1;points=[[0,0,0,0,-2],[0,1,0,0,-5],[1,0,0,0,5],[1,1,0,0,-5]];perimeter=orthogonalPerimeter;outlineConnect=0;targetShapes=umlLifeline;portConstraint=eastwest;newEdgeStyle={&quot;curved&quot;:0,&quot;rounded&quot;:0};" parent="PfETOjP0mrE0vAom9uJC-49" vertex="1">
          <mxGeometry x="45" y="170" width="10" height="360" as="geometry" />
        </mxCell>
        <mxCell id="PfETOjP0mrE0vAom9uJC-51" value="Tnt_Payment_Scr" style="shape=umlLifeline;perimeter=lifelinePerimeter;whiteSpace=wrap;html=1;container=1;dropTarget=0;collapsible=0;recursiveResize=0;outlineConnect=0;portConstraint=eastwest;newEdgeStyle={&quot;curved&quot;:0,&quot;rounded&quot;:0};" parent="1" vertex="1">
          <mxGeometry x="1560" y="1700" width="125" height="820" as="geometry" />
        </mxCell>
        <mxCell id="PfETOjP0mrE0vAom9uJC-52" value="" style="html=1;points=[[0,0,0,0,5],[0,1,0,0,-5],[1,0,0,0,5],[1,1,0,0,-5]];perimeter=orthogonalPerimeter;outlineConnect=0;targetShapes=umlLifeline;portConstraint=eastwest;newEdgeStyle={&quot;curved&quot;:0,&quot;rounded&quot;:0};" parent="PfETOjP0mrE0vAom9uJC-51" vertex="1">
          <mxGeometry x="57.5" y="250" width="10" height="80" as="geometry" />
        </mxCell>
        <mxCell id="PfETOjP0mrE0vAom9uJC-53" value="" style="endArrow=classic;html=1;rounded=0;" parent="1" edge="1">
          <mxGeometry width="50" height="50" relative="1" as="geometry">
            <mxPoint x="1480" y="1870" as="sourcePoint" />
            <mxPoint x="1810" y="1870" as="targetPoint" />
            <Array as="points" />
          </mxGeometry>
        </mxCell>
        <mxCell id="PfETOjP0mrE0vAom9uJC-54" value="loadList()" style="text;html=1;align=center;verticalAlign=middle;resizable=0;points=[];autosize=1;strokeColor=none;fillColor=none;rotation=0;" parent="1" vertex="1">
          <mxGeometry x="1500" y="1850" width="70" height="30" as="geometry" />
        </mxCell>
        <mxCell id="PfETOjP0mrE0vAom9uJC-57" value="Manager" style="text;html=1;align=center;verticalAlign=middle;resizable=0;points=[];autosize=1;strokeColor=none;fillColor=none;" parent="1" vertex="1">
          <mxGeometry x="900" y="1720" width="70" height="30" as="geometry" />
        </mxCell>
        <mxCell id="PfETOjP0mrE0vAom9uJC-61" value="Mngr_Home_Scr" style="shape=umlLifeline;perimeter=lifelinePerimeter;whiteSpace=wrap;html=1;container=1;dropTarget=0;collapsible=0;recursiveResize=0;outlineConnect=0;portConstraint=eastwest;newEdgeStyle={&quot;curved&quot;:0,&quot;rounded&quot;:0};" parent="1" vertex="1">
          <mxGeometry x="1120" y="1700" width="110" height="820" as="geometry" />
        </mxCell>
        <mxCell id="6yws826j8lMxX9Nw2sHo-33" value="" style="html=1;points=[[0,0,0,0,-1],[0,0.54,0,0,0],[1,0,0,0,-1],[1,0.09,0,0,0],[1,0.43,0,0,0],[1,1,0,0,-5]];perimeter=orthogonalPerimeter;outlineConnect=0;targetShapes=umlLifeline;portConstraint=eastwest;newEdgeStyle={&quot;curved&quot;:0,&quot;rounded&quot;:0};" parent="PfETOjP0mrE0vAom9uJC-61" vertex="1">
          <mxGeometry x="50" y="590" width="10" height="40" as="geometry" />
        </mxCell>
        <mxCell id="3RN6DTiH3nOFRmAn9PuU-1" value="Tenant_Home_Scr" style="shape=umlLifeline;perimeter=lifelinePerimeter;whiteSpace=wrap;html=1;container=1;dropTarget=0;collapsible=0;recursiveResize=0;outlineConnect=0;portConstraint=eastwest;newEdgeStyle={&quot;curved&quot;:0,&quot;rounded&quot;:0};" parent="1" vertex="1">
          <mxGeometry x="1260" y="1700" width="110" height="820" as="geometry" />
        </mxCell>
        <mxCell id="3RN6DTiH3nOFRmAn9PuU-3" value="" style="html=1;points=[[0,0,0,0,-1],[0,0.54,0,0,0],[1,0,0,0,-1],[1,0.09,0,0,0],[1,0.43,0,0,0],[1,1,0,0,-5]];perimeter=orthogonalPerimeter;outlineConnect=0;targetShapes=umlLifeline;portConstraint=eastwest;newEdgeStyle={&quot;curved&quot;:0,&quot;rounded&quot;:0};" parent="3RN6DTiH3nOFRmAn9PuU-1" vertex="1">
          <mxGeometry x="50" y="150" width="10" height="20" as="geometry" />
        </mxCell>
        <mxCell id="3RN6DTiH3nOFRmAn9PuU-9" value="loadDebtlist()" style="text;html=1;align=center;verticalAlign=middle;resizable=0;points=[];autosize=1;strokeColor=none;fillColor=none;rotation=0;" parent="1" vertex="1">
          <mxGeometry x="1355" y="1850" width="90" height="30" as="geometry" />
        </mxCell>
        <mxCell id="3RN6DTiH3nOFRmAn9PuU-10" value="" style="endArrow=classic;html=1;rounded=0;" parent="1" edge="1">
          <mxGeometry width="50" height="50" relative="1" as="geometry">
            <mxPoint x="1320" y="1870" as="sourcePoint" />
            <mxPoint x="1470" y="1870" as="targetPoint" />
            <Array as="points" />
          </mxGeometry>
        </mxCell>
        <mxCell id="6yws826j8lMxX9Nw2sHo-2" value="Error Message" style="text;html=1;align=center;verticalAlign=middle;resizable=0;points=[];autosize=1;strokeColor=none;fillColor=none;" parent="1" vertex="1">
          <mxGeometry x="1880" y="2460" width="100" height="30" as="geometry" />
        </mxCell>
        <mxCell id="6yws826j8lMxX9Nw2sHo-4" value="&amp;nbsp;return results" style="html=1;verticalAlign=bottom;endArrow=open;dashed=1;endSize=8;curved=0;rounded=0;fontSize=12;" parent="1" edge="1">
          <mxGeometry x="-0.136" relative="1" as="geometry">
            <mxPoint x="1810" y="1910" as="sourcePoint" />
            <mxPoint x="1480" y="1910" as="targetPoint" />
            <mxPoint x="1" as="offset" />
          </mxGeometry>
        </mxCell>
        <mxCell id="6yws826j8lMxX9Nw2sHo-5" value="" style="endArrow=classic;html=1;rounded=0;" parent="1" source="PfETOjP0mrE0vAom9uJC-52" edge="1">
          <mxGeometry width="50" height="50" relative="1" as="geometry">
            <mxPoint x="1630" y="2030" as="sourcePoint" />
            <mxPoint x="2020" y="2030" as="targetPoint" />
            <Array as="points" />
          </mxGeometry>
        </mxCell>
        <mxCell id="6yws826j8lMxX9Nw2sHo-6" value="display()" style="text;html=1;align=center;verticalAlign=middle;resizable=0;points=[];autosize=1;strokeColor=none;fillColor=none;rotation=0;" parent="1" vertex="1">
          <mxGeometry x="1695" y="2000" width="70" height="30" as="geometry" />
        </mxCell>
        <mxCell id="6yws826j8lMxX9Nw2sHo-11" style="edgeStyle=orthogonalEdgeStyle;rounded=0;orthogonalLoop=1;jettySize=auto;html=1;curved=0;" parent="1" edge="1">
          <mxGeometry relative="1" as="geometry">
            <Array as="points">
              <mxPoint x="1980" y="2453" />
              <mxPoint x="1980" y="2490" />
            </Array>
            <mxPoint x="2020" y="2453" as="sourcePoint" />
            <mxPoint x="2020" y="2490" as="targetPoint" />
          </mxGeometry>
        </mxCell>
        <mxCell id="6yws826j8lMxX9Nw2sHo-13" style="edgeStyle=orthogonalEdgeStyle;rounded=0;orthogonalLoop=1;jettySize=auto;html=1;curved=0;entryX=1;entryY=1;entryDx=0;entryDy=-5;entryPerimeter=0;" parent="1" edge="1">
          <mxGeometry relative="1" as="geometry">
            <Array as="points">
              <mxPoint x="2020" y="2220" />
              <mxPoint x="1980" y="2220" />
              <mxPoint x="1980" y="2254" />
            </Array>
            <mxPoint x="2020" y="2220" as="sourcePoint" />
            <mxPoint x="2020" y="2254" as="targetPoint" />
          </mxGeometry>
        </mxCell>
        <mxCell id="6yws826j8lMxX9Nw2sHo-18" value="" style="endArrow=open;endSize=12;dashed=1;html=1;rounded=0;fontSize=12;curved=1;" parent="1" source="6yws826j8lMxX9Nw2sHo-20" target="PfETOjP0mrE0vAom9uJC-36" edge="1">
          <mxGeometry width="160" relative="1" as="geometry">
            <mxPoint x="1980" y="2304.5" as="sourcePoint" />
            <mxPoint x="2360" y="2304.5" as="targetPoint" />
          </mxGeometry>
        </mxCell>
        <mxCell id="6yws826j8lMxX9Nw2sHo-19" value="createNotif" style="text;html=1;align=center;verticalAlign=middle;resizable=0;points=[];autosize=1;strokeColor=none;fillColor=none;" parent="1" vertex="1">
          <mxGeometry x="2060" y="2240" width="80" height="30" as="geometry" />
        </mxCell>
        <mxCell id="6yws826j8lMxX9Nw2sHo-21" style="edgeStyle=orthogonalEdgeStyle;rounded=0;orthogonalLoop=1;jettySize=auto;html=1;curved=0;" parent="1" source="6yws826j8lMxX9Nw2sHo-20" edge="1">
          <mxGeometry relative="1" as="geometry">
            <Array as="points">
              <mxPoint x="2545" y="2290" />
              <mxPoint x="2545" y="2310" />
            </Array>
            <mxPoint x="2514.93" y="2193" as="sourcePoint" />
            <mxPoint x="2515" y="2310" as="targetPoint" />
          </mxGeometry>
        </mxCell>
        <mxCell id="6yws826j8lMxX9Nw2sHo-24" value="" style="endArrow=classic;html=1;rounded=0;" parent="1" edge="1">
          <mxGeometry width="50" height="50" relative="1" as="geometry">
            <mxPoint x="1180" y="2330" as="sourcePoint" />
            <mxPoint x="2190" y="2330" as="targetPoint" />
            <Array as="points" />
          </mxGeometry>
        </mxCell>
        <mxCell id="6yws826j8lMxX9Nw2sHo-25" value="loadNotifList()" style="text;html=1;align=center;verticalAlign=middle;resizable=0;points=[];autosize=1;strokeColor=none;fillColor=none;rotation=0;" parent="1" vertex="1">
          <mxGeometry x="1200" y="2310" width="100" height="30" as="geometry" />
        </mxCell>
        <mxCell id="6yws826j8lMxX9Nw2sHo-28" value="" style="endArrow=classic;html=1;rounded=0;fontSize=12;startSize=8;endSize=8;curved=1;" parent="1" source="6yws826j8lMxX9Nw2sHo-124" edge="1">
          <mxGeometry width="50" height="50" relative="1" as="geometry">
            <mxPoint x="2345" y="2340" as="sourcePoint" />
            <mxPoint x="2505" y="2340" as="targetPoint" />
          </mxGeometry>
        </mxCell>
        <mxCell id="6yws826j8lMxX9Nw2sHo-29" value="loadNotifications()" style="text;html=1;align=center;verticalAlign=middle;resizable=0;points=[];autosize=1;strokeColor=none;fillColor=none;rotation=0;" parent="1" vertex="1">
          <mxGeometry x="2220" y="2310" width="120" height="30" as="geometry" />
        </mxCell>
        <mxCell id="6yws826j8lMxX9Nw2sHo-30" value="&amp;nbsp;return results" style="html=1;verticalAlign=bottom;endArrow=open;dashed=1;endSize=8;curved=0;rounded=0;fontSize=12;" parent="1" target="6yws826j8lMxX9Nw2sHo-124" edge="1">
          <mxGeometry x="-0.5246" relative="1" as="geometry">
            <mxPoint x="2505" y="2370" as="sourcePoint" />
            <mxPoint x="2340" y="2370" as="targetPoint" />
            <mxPoint as="offset" />
          </mxGeometry>
        </mxCell>
        <mxCell id="6yws826j8lMxX9Nw2sHo-31" value="" style="endArrow=classic;html=1;rounded=0;" parent="1" edge="1">
          <mxGeometry width="50" height="50" relative="1" as="geometry">
            <mxPoint x="940.0238095238096" y="2290" as="sourcePoint" />
            <mxPoint x="1170" y="2290" as="targetPoint" />
          </mxGeometry>
        </mxCell>
        <mxCell id="6yws826j8lMxX9Nw2sHo-32" value="NotificationButton()" style="text;html=1;align=center;verticalAlign=middle;resizable=0;points=[];autosize=1;strokeColor=none;fillColor=none;" parent="1" vertex="1">
          <mxGeometry x="1025" y="2265" width="130" height="30" as="geometry" />
        </mxCell>
        <mxCell id="6yws826j8lMxX9Nw2sHo-34" style="edgeStyle=orthogonalEdgeStyle;rounded=0;orthogonalLoop=1;jettySize=auto;html=1;curved=0;entryX=1;entryY=1;entryDx=0;entryDy=-5;entryPerimeter=0;" parent="1" edge="1">
          <mxGeometry relative="1" as="geometry">
            <Array as="points">
              <mxPoint x="2020" y="2146" />
              <mxPoint x="1980" y="2146" />
              <mxPoint x="1980" y="2180" />
            </Array>
            <mxPoint x="2020" y="2146" as="sourcePoint" />
            <mxPoint x="2020" y="2180" as="targetPoint" />
          </mxGeometry>
        </mxCell>
        <mxCell id="6yws826j8lMxX9Nw2sHo-35" value="&lt;p style=&quot;text-align: left; margin-top: 12pt; margin-right: 0cm; margin-left: 0cm; line-height: normal;&quot; class=&quot;MsoNormal&quot;&gt;&lt;br&gt;&lt;/p&gt;&lt;br&gt;&lt;p style=&quot;margin-top:0cm;margin-right:0cm;margin-bottom:0cm;&lt;br/&gt;margin-left:25.1pt;text-indent:-18.0pt;line-height:normal;mso-list:l1 level1 lfo2;&lt;br/&gt;mso-hyphenate:auto;tab-stops:list 25.1pt;text-autospace:ideograph-numeric ideograph-other;&lt;br/&gt;vertical-align:baseline&quot; class=&quot;MsoNormal&quot;&gt;&lt;br&gt;&lt;/p&gt;&lt;br&gt;&lt;br&gt;&lt;p style=&quot;margin-top:0cm;margin-right:0cm;margin-bottom:24.0pt;&lt;br/&gt;margin-left:25.1pt;text-indent:-18.0pt;line-height:normal;mso-list:l1 level1 lfo2;&lt;br/&gt;mso-hyphenate:auto;tab-stops:list 25.1pt;text-autospace:ideograph-numeric ideograph-other;&lt;br/&gt;vertical-align:baseline&quot; class=&quot;MsoNormal&quot;&gt;&lt;br&gt;&lt;/p&gt;&lt;br&gt;&lt;br&gt;&lt;p style=&quot;margin-top:12.0pt;margin-right:0cm;margin-bottom:&lt;br/&gt;12.0pt;margin-left:0cm;line-height:normal;mso-hyphenate:auto;text-autospace:&lt;br/&gt;ideograph-numeric ideograph-other&quot; class=&quot;MsoNormal&quot;&gt;&lt;br&gt;&lt;/p&gt;" style="text;html=1;align=center;verticalAlign=middle;resizable=0;points=[];autosize=1;strokeColor=none;fillColor=none;fontSize=16;" parent="1" vertex="1">
          <mxGeometry x="600" y="2015" width="20" height="280" as="geometry" />
        </mxCell>
        <mxCell id="6yws826j8lMxX9Nw2sHo-37" value="[Data Correct]" style="text;html=1;align=center;verticalAlign=middle;resizable=0;points=[];autosize=1;strokeColor=none;fillColor=none;" parent="1" vertex="1">
          <mxGeometry x="1080" y="2190" width="100" height="30" as="geometry" />
        </mxCell>
        <mxCell id="6yws826j8lMxX9Nw2sHo-38" value="[Data Incorrect]" style="text;html=1;align=center;verticalAlign=middle;resizable=0;points=[];autosize=1;strokeColor=none;fillColor=none;" parent="1" vertex="1">
          <mxGeometry x="1070" y="2430" width="110" height="30" as="geometry" />
        </mxCell>
        <mxCell id="6yws826j8lMxX9Nw2sHo-39" value="" style="endArrow=classic;html=1;rounded=0;entryX=1;entryY=0.09;entryDx=0;entryDy=0;entryPerimeter=0;" parent="1" edge="1">
          <mxGeometry width="50" height="50" relative="1" as="geometry">
            <mxPoint x="2020" y="2201.3" as="sourcePoint" />
            <mxPoint x="1480" y="2200" as="targetPoint" />
            <Array as="points" />
          </mxGeometry>
        </mxCell>
        <mxCell id="6yws826j8lMxX9Nw2sHo-40" value="AddData()" style="text;html=1;align=center;verticalAlign=middle;resizable=0;points=[];autosize=1;strokeColor=none;fillColor=none;" parent="1" vertex="1">
          <mxGeometry x="1710" y="2190" width="80" height="30" as="geometry" />
        </mxCell>
        <mxCell id="6yws826j8lMxX9Nw2sHo-117" value="AddToList()" style="text;html=1;align=center;verticalAlign=middle;resizable=0;points=[];autosize=1;strokeColor=none;fillColor=none;" parent="1" vertex="1">
          <mxGeometry x="2540" y="2280" width="80" height="30" as="geometry" />
        </mxCell>
        <mxCell id="6yws826j8lMxX9Nw2sHo-118" value="Manage_Debt" style="shape=umlLifeline;perimeter=lifelinePerimeter;whiteSpace=wrap;html=1;container=1;dropTarget=0;collapsible=0;recursiveResize=0;outlineConnect=0;portConstraint=eastwest;newEdgeStyle={&quot;curved&quot;:0,&quot;rounded&quot;:0};" parent="1" vertex="1">
          <mxGeometry x="1420" y="1700" width="110" height="820" as="geometry" />
        </mxCell>
        <mxCell id="6yws826j8lMxX9Nw2sHo-119" value="" style="html=1;points=[[0,0,0,0,-1],[0,0.54,0,0,0],[1,0,0,0,-1],[1,0.09,0,0,0],[1,0.43,0,0,0],[1,1,0,0,-5]];perimeter=orthogonalPerimeter;outlineConnect=0;targetShapes=umlLifeline;portConstraint=eastwest;newEdgeStyle={&quot;curved&quot;:0,&quot;rounded&quot;:0};" parent="6yws826j8lMxX9Nw2sHo-118" vertex="1">
          <mxGeometry x="50" y="170" width="10" height="80" as="geometry" />
        </mxCell>
        <mxCell id="WLer273TRNyKA4ijCV0d-1" value="" style="html=1;points=[[0,0,0,0,-1],[0,0.54,0,0,0],[1,0,0,0,-1],[1,0.09,0,0,0],[1,0.43,0,0,0],[1,1,0,0,-5]];perimeter=orthogonalPerimeter;outlineConnect=0;targetShapes=umlLifeline;portConstraint=eastwest;newEdgeStyle={&quot;curved&quot;:0,&quot;rounded&quot;:0};" parent="6yws826j8lMxX9Nw2sHo-118" vertex="1">
          <mxGeometry x="50" y="500" width="10" height="30" as="geometry" />
        </mxCell>
        <mxCell id="6yws826j8lMxX9Nw2sHo-120" value="" style="endArrow=classic;html=1;rounded=0;" parent="1" target="PfETOjP0mrE0vAom9uJC-52" edge="1">
          <mxGeometry width="50" height="50" relative="1" as="geometry">
            <mxPoint x="1480" y="1950" as="sourcePoint" />
            <mxPoint x="1610" y="1950" as="targetPoint" />
            <Array as="points" />
          </mxGeometry>
        </mxCell>
        <mxCell id="6yws826j8lMxX9Nw2sHo-121" value="show results" style="text;whiteSpace=wrap;html=1;" parent="1" vertex="1">
          <mxGeometry x="1500" y="1930" width="100" height="20" as="geometry" />
        </mxCell>
        <mxCell id="6yws826j8lMxX9Nw2sHo-123" value="ManageNotification" style="shape=umlLifeline;perimeter=lifelinePerimeter;whiteSpace=wrap;html=1;container=1;dropTarget=0;collapsible=0;recursiveResize=0;outlineConnect=0;portConstraint=eastwest;newEdgeStyle={&quot;curved&quot;:0,&quot;rounded&quot;:0};" parent="1" vertex="1">
          <mxGeometry x="2140" y="1700" width="110" height="820" as="geometry" />
        </mxCell>
        <mxCell id="6yws826j8lMxX9Nw2sHo-124" value="" style="html=1;points=[[0,0,0,0,5],[0,1,0,0,-5],[1,0,0,0,5],[1,1,0,0,-5]];perimeter=orthogonalPerimeter;outlineConnect=0;targetShapes=umlLifeline;portConstraint=eastwest;newEdgeStyle={&quot;curved&quot;:0,&quot;rounded&quot;:0};" parent="6yws826j8lMxX9Nw2sHo-123" vertex="1">
          <mxGeometry x="50" y="570" width="10" height="130" as="geometry" />
        </mxCell>
        <mxCell id="6yws826j8lMxX9Nw2sHo-125" value="show results" style="text;whiteSpace=wrap;html=1;" parent="1" vertex="1">
          <mxGeometry x="2220" y="2380" width="100" height="20" as="geometry" />
        </mxCell>
        <mxCell id="6yws826j8lMxX9Nw2sHo-126" value="" style="endArrow=classic;html=1;rounded=0;" parent="1" edge="1">
          <mxGeometry width="50" height="50" relative="1" as="geometry">
            <mxPoint x="2200" y="2400" as="sourcePoint" />
            <mxPoint x="2334" y="2400" as="targetPoint" />
            <Array as="points" />
          </mxGeometry>
        </mxCell>
        <mxCell id="6yws826j8lMxX9Nw2sHo-127" value="" style="endArrow=open;endSize=12;dashed=1;html=1;rounded=0;fontSize=12;curved=1;" parent="1" target="6yws826j8lMxX9Nw2sHo-124" edge="1">
          <mxGeometry width="160" relative="1" as="geometry">
            <mxPoint x="2032.5" y="2270" as="sourcePoint" />
            <mxPoint x="2187.5" y="2270" as="targetPoint" />
          </mxGeometry>
        </mxCell>
        <mxCell id="6yws826j8lMxX9Nw2sHo-20" value="" style="html=1;points=[[0,0,0,0,-2],[0,1,0,0,-5],[1,0,0,0,5],[1,1,0,0,-5]];perimeter=orthogonalPerimeter;outlineConnect=0;targetShapes=umlLifeline;portConstraint=eastwest;newEdgeStyle={&quot;curved&quot;:0,&quot;rounded&quot;:0};" parent="1" vertex="1">
          <mxGeometry x="2505" y="2270" width="10" height="100" as="geometry" />
        </mxCell>
        <mxCell id="6yws826j8lMxX9Nw2sHo-128" value="" style="endArrow=classic;html=1;rounded=0;fontSize=12;startSize=8;endSize=8;curved=1;" parent="1" edge="1">
          <mxGeometry width="50" height="50" relative="1" as="geometry">
            <mxPoint x="2200" y="2270" as="sourcePoint" />
            <mxPoint x="2505" y="2270" as="targetPoint" />
          </mxGeometry>
        </mxCell>
        <mxCell id="6yws826j8lMxX9Nw2sHo-129" value="createNotif()" style="text;html=1;align=center;verticalAlign=middle;resizable=0;points=[];autosize=1;strokeColor=none;fillColor=none;" parent="1" vertex="1">
          <mxGeometry x="2220" y="2250" width="90" height="30" as="geometry" />
        </mxCell>
        <mxCell id="6yws826j8lMxX9Nw2sHo-131" value="UpdateList()" style="html=1;verticalAlign=bottom;endArrow=classic;endSize=8;curved=0;rounded=0;fontSize=12;endFill=1;" parent="1" edge="1">
          <mxGeometry x="-0.4545" relative="1" as="geometry">
            <mxPoint x="1480" y="2230" as="sourcePoint" />
            <mxPoint x="1810" y="2230" as="targetPoint" />
            <mxPoint as="offset" />
          </mxGeometry>
        </mxCell>
      </root>
    </mxGraphModel>
  </diagram>
</mxfile>
